Coordinates
version=1
nRows=13
nColumns=22
inDegrees=yes

Units are S.I. units (second, meters, Newtons, ...)
If the header above contains a line with 'inDegrees', this indicates whether rotational values are in degrees (yes) or radians (no).

endheader
time	pelvis_tilt	pelvis_list	pelvis_rotation	pelvis_tx	pelvis_ty	pelvis_tz	hip_flexion_r	hip_adduction_r	hip_rotation_r	knee_angle_r	ankle_angle_r	subtalar_angle_r	hip_flexion_l	hip_adduction_l	hip_rotation_l	knee_angle_l	ankle_angle_l	subtalar_angle_l	lumbar_extension	lumbar_bending	lumbar_rotation
      0.01000000	      3.53853409	      0.09103046	      6.50098882	      0.15009990	      1.09039563	      1.16702518	     -3.87175531	      1.55057566	     -5.08967658	    -11.69712748	     12.98116121	     -0.74687497	     -4.82544686	     -0.25332369	      3.64046030	    -10.08421752	     11.50231599	     -4.18290725	     -3.00481862	     -1.97569483	     -5.25911857
      0.02000000	      3.51571179	      0.08358223	      6.52130058	      0.15049424	      1.09032673	      1.16674143	     -3.90350689	      1.54497336	     -5.11701927	    -11.63783438	     12.98425460	     -0.74467915	     -4.82370327	     -0.24880835	      3.65674518	    -10.08303351	     11.51678327	     -4.19044541	     -2.97188533	     -1.97354471	     -5.18380837
      0.03000000	      3.49107226	      0.07434278	      6.54219785	      0.15095998	      1.09024825	      1.16641910	     -3.94490397	      1.54019781	     -5.14071141	    -11.56508243	     12.98271499	     -0.74152943	     -4.82533691	     -0.24378260	      3.68269159	    -10.07969719	     11.53916309	     -4.19914565	     -2.93414686	     -1.97004692	     -5.09523990
      0.04000000	      3.46670601	      0.06370322	      6.56248993	      0.15147156	      1.09016573	      1.16607279	     -3.99208433	      1.53589907	     -5.16066908	    -11.48644359	     12.97872291	     -0.73764966	     -4.83123951	     -0.23961655	      3.71285290	    -10.07484514	     11.56662633	     -4.20852103	     -2.89553926	     -1.96574415	     -4.99786053
      0.05000000	      3.46285898	      0.04181223	      6.56656561	      0.15203620	      1.09011122	      1.16574531	     -4.06945468	      1.54796304	     -5.13554247	    -11.39386753	     12.94174190	     -0.72420313	     -4.87467797	     -0.24840006	      3.75624402	    -10.04930821	     11.61747548	     -4.23937763	     -2.87494935	     -1.94481957	     -4.88944665
      0.06000000	      3.44084671	      0.03427587	      6.58943172	      0.15255744	      1.09002513	      1.16538487	     -4.11349918	      1.53989405	     -5.16452697	    -11.32918320	     12.95365356	     -0.72205987	     -4.87745206	     -0.24254421	      3.76983317	    -10.05390318	     11.63202429	     -4.24335033	     -2.84655263	     -1.94420684	     -4.79116202
      0.07000000	      3.41953507	      0.02734086	      6.59982716	      0.15309981	      1.08993951	      1.16504245	     -4.15537538	      1.53089773	     -5.18172393	    -11.27017013	     12.95999574	     -0.71918579	     -4.88848523	     -0.23436509	      3.79271853	    -10.05176147	     11.65870402	     -4.24735822	     -2.81485017	     -1.94293880	     -4.69049236
      0.08000000	      3.40470480	      0.02100497	      6.59015711	      0.15365146	      1.08986390	      1.16475561	     -4.19554569	      1.52376315	     -5.15318286	    -11.22739687	     12.95511209	     -0.71287837	     -4.92443675	     -0.22703287	      3.81532626	    -10.02093107	     11.71217085	     -4.25085898	     -2.79098416	     -1.94427958	     -4.58003199
      0.09000000	      3.38614407	      0.01383906	      6.59857711	      0.15416370	      1.08978456	      1.16444986	     -4.22613735	      1.51721782	     -5.16515352	    -11.19089861	     12.96681866	     -0.71206967	     -4.93230585	     -0.22223717	      3.82191049	    -10.02648705	     11.72413967	     -4.24890881	     -2.77076328	     -1.94229337	     -4.50136973
      0.10000000	      3.36632066	      0.00958188	      6.57870949	      0.15469138	      1.08970203	      1.16421141	     -4.24341066	      1.50752745	     -5.13409775	    -11.17696493	     12.97539406	     -0.71261849	     -4.96078313	     -0.21388614	      3.82159122	     -9.99852242	     11.76784982	     -4.23613006	     -2.74796189	     -1.94647490	     -4.40954267
      0.11000000	      3.34512964	      0.00327744	      6.58042772	      0.15519944	      1.08962122	      1.16395779	     -4.26164211	      1.50180694	     -5.13967818	    -11.15608222	     12.98697436	     -0.71442023	     -4.97011281	     -0.20988631	      3.81955364	     -9.99714116	     11.77992133	     -4.22957871	     -2.72821084	     -1.94773398	     -4.35597635
      0.12000000	      3.31990044	     -0.00139727	      6.56903687	      0.15572155	      1.08953554	      1.16374950	     -4.26955839	      1.49466888	     -5.13014633	    -11.14683708	     12.99981460	     -0.71883849	     -4.98853597	     -0.20409135	      3.81534393	     -9.97402438	     11.81006276	     -4.21847238	     -2.70185714	     -1.95315321	     -4.30457358
      0.13000000	      3.29359060	     -0.00509295	      6.54955653	      0.15623287	      1.08944788	      1.16357402	     -4.27067834	      1.48726251	     -5.10349781	    -11.14656633	     13.01623771	     -0.72748301	     -5.00721881	     -0.19724154	      3.80314905	     -9.94860122	     11.84233470	     -4.20016655	     -2.67693717	     -1.95935705	     -4.26467773
